<svg xmlns="http://www.w3.org/2000/svg" viewBox="0 0 800 520" width="800" height="520" role="img" aria-label="news-3.svg"><defs><linearGradient id="g" x1="0" y1="0" x2="1" y2="1"><stop offset="0" stop-color="#123262"/><stop offset="1" stop-color="#08172f"/></linearGradient><pattern id="grid" width="46" height="46" patternUnits="userSpaceOnUse"><path d="M46 0H0V46" fill="none" stroke="#ffffff" stroke-opacity="0.05" stroke-width="1"/></pattern></defs><rect width="800" height="520" fill="url(#g)"/><rect width="800" height="520" fill="url(#grid)"/><rect x="18" y="18" width="764" height="484" fill="none" stroke="#b8902f" stroke-opacity="0.35" stroke-width="1.5"/><g opacity="0.07" transform="translate(600,140) scale(5.4)"><path d="M30 2 56 12v20c0 18-14 28-26 34C18 60 4 50 4 32V12z" fill="#ffffff"/><path d="M18 40c6-3 10-8 12-16 2 8 6 13 12 16-5 1-9 4-12 9-3-5-7-8-12-9z" fill="#ffffff"/></g><circle cx="400" cy="230" r="120" fill="none" stroke="#cba94f" stroke-width="2" opacity="0.5"/><ellipse cx="400" cy="230" rx="120" ry="46" fill="none" stroke="#cba94f" stroke-width="1.5" opacity="0.4"/><ellipse cx="400" cy="230" rx="46" ry="120" fill="none" stroke="#cba94f" stroke-width="1.5" opacity="0.4"/><polygon points="131.0,380.0 149.0,380.0 140.0,398.0" fill="#cba94f" opacity="0.9"/><polygon points="174.3,384.7 192.3,384.7 183.3,402.7" fill="#ffffff" opacity="0.9"/><polygon points="217.7,385.8 235.7,385.8 226.7,403.8" fill="#e3cd8e" opacity="0.9"/><polygon points="261.0,382.6 279.0,382.6 270.0,400.6" fill="#2657a3" opacity="0.9"/><polygon points="304.3,377.3 322.3,377.3 313.3,395.3" fill="#cba94f" opacity="0.9"/><polygon points="347.7,374.1 365.7,374.1 356.7,392.1" fill="#ffffff" opacity="0.9"/><polygon points="391.0,375.4 409.0,375.4 400.0,393.4" fill="#e3cd8e" opacity="0.9"/><polygon points="434.3,380.1 452.3,380.1 443.3,398.1" fill="#2657a3" opacity="0.9"/><polygon points="477.7,384.8 495.7,384.8 486.7,402.8" fill="#cba94f" opacity="0.9"/><polygon points="521.0,385.8 539.0,385.8 530.0,403.8" fill="#ffffff" opacity="0.9"/><polygon points="564.3,382.5 582.3,382.5 573.3,400.5" fill="#e3cd8e" opacity="0.9"/><polygon points="607.7,377.3 625.7,377.3 616.7,395.3" fill="#2657a3" opacity="0.9"/><polygon points="651.0,374.1 669.0,374.1 660.0,392.1" fill="#cba94f" opacity="0.9"/><rect x="0" y="420" width="800" height="100" fill="#08172f" opacity="0.4"/></svg>